/vscmnt/brussel_pixiu_data/_data_brussel/112/vsc11236/PredSimResults/SUBJ09opt3D/weighted-expIG/worker_02.mot
version=1
nRows=7
nColumns=50
inDegrees=yes
endheader
                time	         pelvis_tilt	         pelvis_list	     pelvis_rotation	           pelvis_tx	           pelvis_ty	           pelvis_tz	       hip_flexion_r	     hip_adduction_r	      hip_rotation_r	        knee_angle_r	       ankle_angle_r	         mtp_angle_r	       hip_flexion_l	     hip_adduction_l	      hip_rotation_l	        knee_angle_l	       ankle_angle_l	         mtp_angle_l	    lumbar_extension	      lumbar_bending	     lumbar_rotation	 ercspn_r/activation	 intobl_r/activation	 extobl_r/activation	    abd_r/activation	    add_r/activation	hamstrings_r/activation	bifemsh_r/activation	glut_max_r/activation	iliopsoas_r/activation	rect_fem_r/activation	  vasti_r/activation	gastroc_r/activation	 soleus_r/activation	tib_ant_r/activation	 ercspn_l/activation	 intobl_l/activation	 extobl_l/activation	    abd_l/activation	    add_l/activation	hamstrings_l/activation	bifemsh_l/activation	glut_max_l/activation	iliopsoas_l/activation	rect_fem_l/activation	  vasti_l/activation	gastroc_l/activation	 soleus_l/activation	tib_ant_l/activation	
          0.65416234	         -4.23630718	          0.97769778	         -7.73003416	          0.76536994	          0.99009200	          0.00114217	        -13.29443415	         -2.39913774	         -5.85943915	        -11.38624285	          3.43247879	         38.02496509	         28.48256173	         -0.96104446	         -8.38756283	         -6.20325210	          3.49359295	          0.24167828	        -13.10464139	          1.36152751	          7.93135247	          0.03502829	          0.00999999	          0.00999999	          0.03070841	          0.01218053	          0.02457239	          0.21846407	          0.01282594	          0.05069648	          0.00999999	          0.00999999	          0.30150561	          0.22221265	          0.01185099	          0.02815107	          0.14982232	          0.03366843	          0.00999999	          0.27256277	          0.05164020	          0.08349239	          0.09518488	          0.11459893	          0.01527477	          0.00999999	          0.01428190	          0.01483654	          0.32726705	
          0.66724559	         -4.27831213	          1.09989795	         -7.69089272	          0.78578558	          0.98787167	          0.00034054	        -13.79432925	         -2.76484917	         -6.34301785	        -12.43237147	          2.27202497	         39.66136073	         28.26110976	         -0.75961458	         -8.57648596	         -7.78243140	          3.08607595	          0.20705798	        -12.53284210	          0.87351284	          8.06988077	          0.02875758	          0.00999999	          0.00999999	          0.02521104	          0.00999999	          0.02209873	          0.17935498	          0.01052986	          0.04491578	          0.00999999	          0.00999999	          0.26785258	          0.19802549	          0.00999999	          0.02311151	          0.12300137	          0.02764116	          0.07837419	          0.22376902	          0.06177878	          0.06854572	          0.11673373	          0.09408361	          0.01254030	          0.00999999	          0.01218053	          0.01218053	          0.36691283	
          0.68032883	         -4.30022694	          1.23804270	         -7.61980377	          0.80640729	          0.98597861	         -0.00055688	        -14.06499788	         -3.18010996	         -6.84174349	        -13.92476952	          0.97856439	         41.20562742	         27.93660601	         -0.54027476	         -8.78166527	         -9.21167752	          2.49100613	          0.19846933	        -11.95542129	          0.36815702	          8.16942190	          0.02360945	          0.00999999	          0.00999999	          0.02069780	          0.00999999	          0.02870174	          0.14724714	          0.00999999	          0.08307423	          0.00999999	          0.00999999	          0.21990204	          0.16257528	          0.00999999	          0.02146026	          0.10098186	          0.02269289	          0.13148805	          0.22395105	          0.05871244	          0.05627477	          0.14507380	          0.07724092	          0.01029536	          0.00999999	          0.00999999	          0.00999999	          0.41316152	
          0.69341208	         -4.30498826	          1.38514951	         -7.51848079	          0.82682394	          0.98463743	         -0.00156096	        -13.99939316	         -3.64850425	         -7.34971992	        -16.00602458	         -0.41238213	         42.45352346	         27.66424435	         -0.31593153	         -9.00904057	        -10.74178335	          1.93019942	          0.16442262	        -11.41998650	         -0.14767116	          8.22857577	          0.07899336	          0.00999999	          0.00999999	          0.01699251	          0.04289251	          0.04172697	          0.12088719	          0.00999999	          0.07135908	          0.00999999	          0.00999999	          0.18053553	          0.13347131	          0.00999999	          0.02852460	          0.08290425	          0.01863044	          0.18477415	          0.23107803	          0.06007707	          0.04620055	          0.15441880	          0.06341337	          0.00999999	          0.11651112	          0.00999999	          0.00999999	          0.43697584	
          0.70649533	         -4.29622274	          1.54158161	         -7.39501819	          0.84675585	          0.98407182	         -0.00264976	        -13.52930999	         -4.17873385	         -7.88647702	        -18.74281164	         -1.88258926	         43.12248507	         27.45563810	         -0.08276632	         -9.20574785	        -12.41810830	          1.73992421	          0.11995446	        -10.95268769	         -0.67487262	          8.25120477	          0.09249316	          0.00999999	          0.00999999	          0.01395054	          0.13767040	          0.04294573	          0.09924616	          0.00999999	          0.07337232	          0.00999999	          0.00999999	          0.14821634	          0.10957749	          0.00999999	          0.02848432	          0.06806286	          0.01529525	          0.20385058	          0.24066468	          0.05599153	          0.03792980	          0.18882659	          0.05206121	          0.00999999	          0.21267852	          0.00999999	          0.00999999	          0.43473330	
          0.71957858	         -4.27766635	          1.68662816	         -7.24664348	          0.86603836	          0.98443736	         -0.00378339	        -12.62061231	         -4.75943332	         -8.49236020	        -22.17799886	         -3.32648494	         42.74581065	         27.23888920	          0.15013430	         -9.36072267	        -14.10624997	          1.99689184	          0.08870697	        -10.56974869	         -1.19220444	          8.23367181	          0.09669681	          0.00999999	          0.00999999	          0.01145313	          0.19789098	          0.04356299	          0.08147927	          0.00999999	          0.06023733	          0.00999999	          0.00999999	          0.12168289	          0.08996110	          0.00999999	          0.02338751	          0.05587836	          0.01255712	          0.20476799	          0.26016584	          0.06003179	          0.03113967	          0.19009050	          0.04274129	          0.00999999	          0.25821411	          0.00999999	          0.00999999	          0.38668577	
          0.73266182	         -4.25165444	          1.79366370	         -7.07026644	          0.88466051	          0.98571452	         -0.00492056	        -11.30295206	         -5.37410982	         -9.15379767	        -26.20863223	         -4.88307846	         41.31893036	         26.92172307	          0.37060364	         -9.45940756	        -15.62332943	          2.61327355	          0.09959325	        -10.27066310	         -1.67146772	          8.17299488	          0.08482758	          0.00999999	          0.00999999	          0.00999999	          0.26172456	          0.04467581	          0.06689299	          0.00999999	          0.04945374	          0.00999999	          0.00999999	          0.09989941	          0.07385641	          0.02398808	          0.01920072	          0.04587510	          0.01030916	          0.19898184	          0.26443131	          0.06128885	          0.02556510	          0.19319704	          0.03508981	          0.00999999	          0.29006435	          0.00999999	          0.00999999	          0.32655389	
